<svg xmlns="http://www.w3.org/2000/svg" xmlns:xlink="http://www.w3.org/1999/xlink" xml:space="preserve" version="1.1" style="shape-rendering:geometricPrecision;text-rendering:geometricPrecision;image-rendering:optimizeQuality;" viewBox="0 0 437 548.75" x="0px" y="0px" fill-rule="evenodd" clip-rule="evenodd"><defs><style>
   
    .fil0 {fill:white}
   
  
</style></defs><g><path class="fil0" d="M147 144c44,129 19,103 148,147 -129,44 -104,19 -148,148 -44,-129 -19,-104 -147,-148 128,-44 103,-18 147,-147z"></path><path class="fil0" d="M339 74c29,85 13,69 98,98 -85,29 -69,12 -98,97 -29,-85 -12,-68 -97,-97 85,-29 68,-13 97,-98z"></path><path class="fil0" d="M213 0c19,55 8,44 63,63 -55,19 -44,8 -63,63 -19,-55 -8,-44 -63,-63 55,-19 44,-8 63,-63z"></path></g><text x="0" y="454" fill="#000000" font-size="5px" font-weight="bold" font-family="'Helvetica Neue', Helvetica, Arial-Unicode, Arial, Sans-serif"></text><text x="0" y="459" fill="#000000" font-size="5px" font-weight="bold" font-family="'Helvetica Neue', Helvetica, Arial-Unicode, Arial, Sans-serif"></text></svg>
